<svg width="567" height="171" viewBox="0 0 567 171" fill="none" xmlns="http://www.w3.org/2000/svg">
<path d="M356.301 90.8933C350.51 90.8933 345.209 89.4253 340.397 86.4893C335.667 83.4718 331.875 79.4756 329.021 74.5007C326.248 69.4443 324.861 63.8578 324.861 57.7411C324.861 53.174 325.677 48.8924 327.308 44.8962C328.939 40.8184 331.182 37.2708 334.036 34.2532C336.891 31.1541 340.194 28.7483 343.945 27.0356C347.778 25.2414 351.897 24.3443 356.301 24.3443C361.847 24.3443 366.169 25.4045 369.268 27.5249C372.367 29.5638 374.773 32.2959 376.486 35.7212V25.6899H392.878V89.303H376.853V78.9047C375.14 82.4931 372.693 85.3883 369.513 87.5903C366.414 89.7923 362.01 90.8933 356.301 90.8933ZM358.992 75.9687C362.662 75.9687 365.802 75.1531 368.412 73.522C371.103 71.8094 373.183 69.5666 374.651 66.7937C376.119 64.0209 376.853 61.0033 376.853 57.7411C376.853 54.3974 376.119 51.339 374.651 48.5662C373.183 45.7933 371.103 43.5505 368.412 41.8379C365.802 40.1252 362.662 39.2689 358.992 39.2689C355.485 39.2689 352.386 40.1252 349.695 41.8379C347.085 43.469 345.046 45.671 343.578 48.4438C342.11 51.2167 341.376 54.275 341.376 57.6188C341.376 60.7994 342.11 63.817 343.578 66.6714C345.046 69.4443 347.085 71.687 349.695 73.3997C352.386 75.1124 355.485 75.9687 358.992 75.9687Z" fill="white"/>
<path d="M258.136 89.3029V0H274.651V34.4978C278.076 27.6472 284.478 24.2219 293.857 24.2219C298.424 24.2219 302.543 25.2821 306.213 27.4025C309.883 29.523 312.778 32.5405 314.898 36.4551C317.019 40.3698 318.079 45.0184 318.079 50.4011V89.3029H301.564V54.438C301.564 48.8923 300.3 44.8961 297.772 42.4494C295.244 39.9212 291.941 38.6571 287.863 38.6571C284.356 38.6571 281.257 39.9212 278.566 42.4494C275.956 44.8961 274.651 48.8923 274.651 54.438V89.3029H258.136Z" fill="white"/>
<path d="M211.747 90.8932C205.957 90.8932 200.656 89.4252 195.844 86.4892C191.114 83.4717 187.321 79.4755 184.467 74.5006C181.694 69.4442 180.308 63.8577 180.308 57.741C180.308 53.1739 181.123 48.8923 182.754 44.8961C184.385 40.8183 186.628 37.2707 189.483 34.2532C192.337 31.1541 195.64 28.7482 199.392 27.0355C203.225 25.2413 207.343 24.3442 211.747 24.3442C217.211 24.3442 221.493 25.3636 224.592 27.4025C227.691 29.4414 230.097 32.1327 231.81 35.4765V0H248.325V89.3029H232.299V78.9046C230.586 82.493 228.14 85.3882 224.959 87.5902C221.86 89.7922 217.456 90.8932 211.747 90.8932ZM214.438 75.9686C218.108 75.9686 221.248 75.1531 223.858 73.5219C226.549 71.8093 228.629 69.5665 230.097 66.7936C231.565 64.0208 232.299 61.0032 232.299 57.741C232.299 54.3973 231.565 51.339 230.097 48.5661C228.629 45.7932 226.549 43.5504 223.858 41.8378C221.248 40.1251 218.108 39.2688 214.438 39.2688C210.932 39.2688 207.833 40.1251 205.141 41.8378C202.531 43.4689 200.493 45.6709 199.025 48.4437C197.557 51.2166 196.823 54.2749 196.823 57.6187C196.823 60.7994 197.557 63.8169 199.025 66.6713C200.493 69.4442 202.531 71.6869 205.141 73.3996C207.833 75.1123 210.932 75.9686 214.438 75.9686Z" fill="white"/>
<path d="M136.363 90.8933C130.573 90.8933 125.272 89.4253 120.46 86.4893C115.73 83.4718 111.938 79.4756 109.083 74.5007C106.31 69.4443 104.924 63.8578 104.924 57.7411C104.924 53.174 105.739 48.8924 107.37 44.8962C109.002 40.8184 111.244 37.2708 114.099 34.2532C116.953 31.1541 120.256 28.7483 124.008 27.0356C127.841 25.2414 131.959 24.3443 136.363 24.3443C141.909 24.3443 146.231 25.4045 149.331 27.5249C152.43 29.5638 154.836 32.2959 156.548 35.7212V25.6899H172.941V89.303H156.915V78.9047C155.203 82.4931 152.756 85.3883 149.575 87.5903C146.476 89.7923 142.072 90.8933 136.363 90.8933ZM139.055 75.9687C142.725 75.9687 145.864 75.1531 148.474 73.522C151.166 71.8094 153.245 69.5666 154.713 66.7937C156.181 64.0209 156.915 61.0033 156.915 57.7411C156.915 54.3974 156.181 51.339 154.713 48.5662C153.245 45.7933 151.166 43.5505 148.474 41.8379C145.864 40.1252 142.725 39.2689 139.055 39.2689C135.548 39.2689 132.449 40.1252 129.757 41.8379C127.148 43.469 125.109 45.671 123.641 48.4438C122.173 51.2167 121.439 54.275 121.439 57.6188C121.439 60.7994 122.173 63.817 123.641 66.6714C125.109 69.4443 127.148 71.687 129.757 73.3997C132.449 75.1124 135.548 75.9687 139.055 75.9687Z" fill="white"/>
<path d="M0 89.3029V3.66997H21.2859L39.0241 41.4708C41.063 45.8748 42.6941 49.504 43.9174 52.3584C45.2223 55.2128 46.201 57.5779 46.8534 59.4537C47.5874 61.3295 48.1583 62.9606 48.5661 64.347C48.9739 62.9606 49.504 61.3295 50.1564 59.4537C50.8088 57.5779 51.7467 55.2128 52.9701 52.3584C54.2749 49.504 55.9468 45.8748 57.9857 41.4708L75.8463 3.66997H96.3982V89.3029H79.6386V54.6827C79.6386 50.7681 79.6794 47.4243 79.7609 44.6514C79.8425 41.8786 79.9648 39.3503 80.1279 37.0668C80.291 34.7017 80.5357 32.2958 80.8619 29.8492L52.3584 89.3029H44.0398L15.5363 29.8492C15.8625 32.2958 16.1071 34.7017 16.2702 37.0668C16.4334 39.3503 16.5557 41.8786 16.6372 44.6514C16.7188 47.4243 16.7596 50.7681 16.7596 54.6827V89.3029H0Z" fill="white"/>
<path d="M434 24C440.207 24 445.648 25.2398 450.321 27.7195C454.995 30.2721 458.61 33.7728 461.166 38.2216C463.722 42.7433 465 47.9215 465 53.756V89H449.664V55.3969C449.664 50 448.386 45.7335 445.83 42.5975C443.201 39.5344 439.258 38.0028 434 38.0028C428.742 38.0028 424.835 39.5344 422.279 42.5975C419.65 45.7335 418.336 50 418.336 55.3969V89H403V53.756C403 47.9215 404.278 42.7433 406.834 38.2216C409.39 33.7728 413.005 30.2721 417.678 27.7195C422.279 25.2398 427.72 24 434 24Z" fill="white"/>
<path d="M434 170C427.793 170 422.352 168.76 417.678 166.281C413.005 163.728 409.39 160.227 406.834 155.778C404.278 151.257 403 146.079 403 140.244V105H418.336V138.603C418.336 144 419.614 148.266 422.169 151.403C424.798 154.466 428.742 155.997 434 155.997C439.258 155.997 443.165 154.466 445.721 151.403C448.35 148.266 449.664 144 449.664 138.603V105H465V140.244C465 146.079 463.722 151.257 461.166 155.778C458.61 160.227 454.995 163.728 450.321 166.281C445.721 168.76 440.28 170 434 170Z" fill="white"/>
<path d="M333 170C326.793 170 321.352 168.76 316.678 166.281C312.005 163.728 308.39 160.227 305.834 155.778C303.278 151.257 302 146.079 302 140.244V105H317.336V138.603C317.336 144 318.614 148.266 321.169 151.403C323.798 154.466 327.742 155.997 333 155.997C338.258 155.997 342.165 154.466 344.721 151.403C347.35 148.266 348.664 144 348.664 138.603V105H364V140.244C364 146.079 362.722 151.257 360.166 155.778C357.61 160.227 353.995 163.728 349.321 166.281C344.721 168.76 339.28 170 333 170Z" fill="white"/>
<path d="M375.828 136H393.828V170H375.828V136Z" fill="white"/>
<path d="M428 88.5C428 84.9101 430.91 82 434.5 82C438.09 82 441 84.9101 441 88.5V109.5C441 113.09 438.09 116 434.5 116C430.91 116 428 113.09 428 109.5V88.5Z" fill="white"/>
<path fill-rule="evenodd" clip-rule="evenodd" d="M520.693 124.807L520.75 124.75L533.478 137.478L533.399 137.557L520.693 124.807Z" fill="white"/>
<path d="M393.828 114C393.828 118.971 389.798 123 384.828 123C379.857 123 375.828 118.971 375.828 114C375.828 109.029 379.857 105 384.828 105C389.798 105 393.828 109.029 393.828 114Z" fill="white"/>
<path d="M553 114C553 118.971 548.97 123 544 123C539.029 123 535 118.971 535 114C535 109.029 539.029 105 544 105C548.97 105 553 109.029 553 114Z" fill="white"/>
<path d="M500.456 104.5H475L507.943 137.557L475 170.5H500.456L520.649 150.307L540.772 170.5L566.229 170.5L533.399 137.557L520.693 124.807L500.456 104.5Z" fill="white"/>
</svg>
